<svg width="151" height="33" viewBox="0 0 151 33" fill="none" xmlns="http://www.w3.org/2000/svg">
<path d="M15.3119 19.9237H6.41587L4.94387 24.1797H0.239868L8.27187 1.81166H13.4879L21.5199 24.1797H16.7839L15.3119 19.9237ZM14.0959 16.3397L10.8639 6.99566L7.63187 16.3397H14.0959ZM29.0025 9.20366C29.5785 8.26499 30.3252 7.52899 31.2425 6.99566C32.1812 6.46233 33.2479 6.19566 34.4425 6.19566V10.8997H33.2585C31.8505 10.8997 30.7839 11.2303 30.0585 11.8917C29.3545 12.553 29.0025 13.705 29.0025 15.3477V24.1797H24.5225V6.45166H29.0025V9.20366ZM36.3074 15.3157C36.3074 13.481 36.6808 11.881 37.4274 10.5157C38.1741 9.12899 39.2088 8.06233 40.5314 7.31566C41.8541 6.54766 43.3688 6.16366 45.0754 6.16366C47.2728 6.16366 49.0861 6.71833 50.5154 7.82766C51.9661 8.91566 52.9368 10.4517 53.4274 12.4357H48.5954C48.3394 11.6677 47.9021 11.0703 47.2834 10.6437C46.6861 10.1957 45.9394 9.97166 45.0434 9.97166C43.7634 9.97166 42.7501 10.441 42.0034 11.3797C41.2568 12.297 40.8834 13.609 40.8834 15.3157C40.8834 17.001 41.2568 18.313 42.0034 19.2517C42.7501 20.169 43.7634 20.6277 45.0434 20.6277C46.8568 20.6277 48.0408 19.817 48.5954 18.1957H53.4274C52.9368 20.1157 51.9661 21.641 50.5154 22.7717C49.0648 23.9023 47.2514 24.4677 45.0754 24.4677C43.3688 24.4677 41.8541 24.0943 40.5314 23.3477C39.2088 22.5797 38.1741 21.513 37.4274 20.1477C36.6808 18.761 36.3074 17.1503 36.3074 15.3157ZM66.6932 6.19566C68.0372 6.19566 69.2319 6.49433 70.2772 7.09166C71.3225 7.66766 72.1332 8.53166 72.7092 9.68366C73.3065 10.8143 73.6052 12.1797 73.6052 13.7797V24.1797H69.1252V14.3877C69.1252 12.9797 68.7732 11.9023 68.0692 11.1557C67.3652 10.3877 66.4052 10.0037 65.1892 10.0037C63.9519 10.0037 62.9705 10.3877 62.2452 11.1557C61.5412 11.9023 61.1892 12.9797 61.1892 14.3877V24.1797H56.7092V0.49966H61.1892V8.65966C61.7652 7.89166 62.5332 7.29433 63.4932 6.86766C64.4532 6.41966 65.5199 6.19566 66.6932 6.19566ZM94.3456 14.9317C94.3456 15.5717 94.303 16.1477 94.2176 16.6597H81.2576C81.3643 17.9397 81.8123 18.9423 82.6016 19.6677C83.391 20.393 84.3619 20.7557 85.5145 20.7557C87.1785 20.7557 88.3625 20.041 89.0665 18.6117H93.8985C93.3865 20.3183 92.4052 21.7263 90.9545 22.8357C89.5039 23.9237 87.7225 24.4677 85.6105 24.4677C83.9039 24.4677 82.3679 24.0943 81.0025 23.3477C79.6579 22.5797 78.6019 21.5023 77.8345 20.1157C77.0879 18.729 76.7145 17.129 76.7145 15.3157C76.7145 13.481 77.0879 11.8703 77.8345 10.4837C78.5812 9.09699 79.6265 8.03033 80.9705 7.28366C82.3145 6.53699 83.8612 6.16366 85.6105 6.16366C87.2959 6.16366 88.7999 6.52633 90.1225 7.25166C91.4665 7.97699 92.5012 9.01166 93.2265 10.3557C93.9732 11.6783 94.3456 13.2037 94.3456 14.9317ZM89.7065 13.6517C89.6852 12.4997 89.2692 11.5823 88.4585 10.8997C87.6479 10.1957 86.6559 9.84366 85.4825 9.84366C84.3732 9.84366 83.4345 10.185 82.6665 10.8677C81.9199 11.529 81.4612 12.457 81.2905 13.6517H89.7065ZM104.401 24.4677C102.95 24.4677 101.649 24.2117 100.497 23.6997C99.3447 23.1663 98.4274 22.4517 97.7448 21.5557C97.0834 20.6597 96.7208 19.6677 96.6568 18.5797H101.169C101.254 19.2623 101.585 19.8277 102.161 20.2757C102.758 20.7237 103.494 20.9477 104.369 20.9477C105.222 20.9477 105.883 20.777 106.353 20.4357C106.843 20.0943 107.089 19.657 107.089 19.1237C107.089 18.5477 106.79 18.121 106.193 17.8437C105.617 17.545 104.689 17.225 103.409 16.8837C102.086 16.5637 100.998 16.233 100.145 15.8917C99.3128 15.5503 98.5874 15.0277 97.9688 14.3237C97.3714 13.6197 97.0728 12.6703 97.0728 11.4757C97.0728 10.4943 97.3501 9.59833 97.9048 8.78766C98.4808 7.97699 99.2914 7.33699 100.337 6.86766C101.403 6.39833 102.651 6.16366 104.081 6.16366C106.193 6.16366 107.878 6.69699 109.137 7.76366C110.395 8.80899 111.089 10.2277 111.217 12.0197H106.929C106.865 11.3157 106.566 10.761 106.033 10.3557C105.521 9.92899 104.827 9.71566 103.953 9.71566C103.142 9.71566 102.513 9.86499 102.065 10.1637C101.638 10.4623 101.425 10.8783 101.425 11.4117C101.425 12.009 101.723 12.4677 102.321 12.7877C102.918 13.0863 103.846 13.3957 105.105 13.7157C106.385 14.0357 107.441 14.3663 108.273 14.7077C109.105 15.049 109.819 15.5823 110.417 16.3077C111.035 17.0117 111.355 17.9503 111.377 19.1237C111.377 20.1477 111.089 21.065 110.513 21.8757C109.958 22.6863 109.147 23.3263 108.081 23.7957C107.035 24.2437 105.809 24.4677 104.401 24.4677ZM125.55 24.1797L119.534 16.6277V24.1797H115.054V0.49966H119.534V13.9717L125.486 6.45166H131.31L123.502 15.3477L131.374 24.1797H125.55ZM150.702 6.45166L139.725 32.5637H134.957L138.797 23.7317L131.693 6.45166H136.717L141.293 18.8357L145.933 6.45166H150.702Z" fill="#424241"/>
</svg>
